<?xml version="1.0" encoding="UTF-8"?> <svg xmlns="http://www.w3.org/2000/svg" xmlns:xlink="http://www.w3.org/1999/xlink" version="1.1" id="Layer_1" x="0px" y="0px" viewBox="0 0 978.1 639.1" style="enable-background:new 0 0 978.1 639.1;" xml:space="preserve"> <style type="text/css"> .st0{fill:#024089;} .st1{fill:#FFFFFF;} .st2{fill:#FFF1C4;} .st3{fill:#36A9E1;} .st4{fill:#FFD500;} </style> <g> <path class="st0" d="M909.1,391.7c-0.5,0.3-1.4,0.4-2.6,0.4h-2.1V388h2.1c1.2,0,2,0.2,2.6,0.5c0.5,0.3,0.8,0.9,0.8,1.6 C909.8,390.9,909.6,391.4,909.1,391.7 M911.6,390c0-1.1-0.4-1.9-1.2-2.4c-0.8-0.5-2-0.8-3.6-0.8h-4.2v11.6h1.8v-5.1h2.7l2.4,5.1h2 l-2.6-5.3c0.8-0.1,1.5-0.5,2-1C911.4,391.5,911.6,390.8,911.6,390"></path> <path class="st0" d="M914.8,396.3c-0.4,1.1-1.1,2-1.9,2.8c-0.9,0.9-1.9,1.5-3,2c-1.1,0.4-2.2,0.7-3.4,0.7c-1.2,0-2.3-0.3-3.4-0.7 c-1.1-0.5-2.1-1.1-2.9-2c-0.9-0.9-1.5-1.8-2-2.9c-0.5-1.1-0.7-2.2-0.7-3.4c0-1.2,0.2-2.3,0.7-3.4c0.5-1.1,1.1-2.1,2-3 c0.8-0.8,1.8-1.5,2.9-1.9c1-0.4,2.2-0.7,3.4-0.7c1.2,0,2.4,0.2,3.5,0.7c1.1,0.4,2.1,1.1,2.9,1.9c0.8,0.8,1.5,1.8,1.9,2.9 c0.4,1.1,0.6,2.2,0.6,3.5C915.5,394.1,915.3,395.2,914.8,396.3 M915.8,388.9c-0.5-1.2-1.2-2.3-2.2-3.2c-0.9-1-2-1.7-3.2-2.2 c-1.2-0.5-2.5-0.8-3.9-0.8c-1.4,0-2.6,0.2-3.8,0.7c-1.2,0.5-2.3,1.2-3.2,2.2c-1,1-1.7,2.1-2.2,3.3c-0.5,1.2-0.8,2.5-0.8,3.8 c0,1.3,0.3,2.6,0.8,3.8c0.5,1.2,1.2,2.3,2.2,3.2c1,1,2,1.7,3.2,2.2c1.2,0.5,2.5,0.8,3.8,0.8c1.3,0,2.6-0.3,3.8-0.8 c1.3-0.5,2.4-1.3,3.3-2.2c1-0.9,1.7-2,2.2-3.2c0.5-1.2,0.8-2.5,0.8-3.8C916.6,391.4,916.3,390.1,915.8,388.9"></path> <path class="st0" d="M240.2,448.6c-3.2,0-3.9-1.7-3.9-8.4v-31.8c0-11.8-1-16-4.7-20.5c-4.5-5.2-12.1-8.1-21.7-8.1 c-13.8,0-24.1,3.4-41.4,13.8l9.7,15.8c11.3-6.2,17.5-8.6,23-8.6c5.9,0,9.2,3.5,9.2,9.7c0,0.3-0.2,1.7-0.2,2.7 c-13.8,1.5-21.9,3-28.4,5.4c-12.3,4.5-18.5,12.6-18.5,24.4c0,15,9.9,24.7,24.9,24.7c8.6,0,14.6-2.3,23.9-9.2 c2.2,6.7,6.1,9.2,14.1,9.2c6.6,0,12.1-1.3,21.2-5.4l-3.4-14.8C242,448.4,241.4,448.6,240.2,448.6 M210.8,444.5 c-4.7,3.5-7.6,4.7-11.3,4.7c-5.9,0-9.9-3.7-9.9-9.2c0-7.3,5.6-10.6,21.2-12.5V444.5z"></path> <path class="st0" d="M143.4,341.4c-8.2,0.3-16,3.5-20.8,8.1c-6.1,5.6-9.1,14.6-9.1,27.6v5.6h-12.8v13.8h12.8v68.8h27.5v-68.8h21.2 v-13.8h-21.2c-0.2-15.8,3.3-20.9,17.9-20.9h3.3v-20.3H157H143.4z"></path> <path class="st0" d="M302.2,382.7c-6.8,1.8-13.9,5.1-19.8,10.2v-10.2h-27.6v82.5h27.6v-52.6c7.9-6.2,14.8-7.9,19.6-7.9 c5.1,0,7.3,3.8,7.7,5.4v-27.4C307.4,382.2,304.8,382.1,302.2,382.7"></path> <path class="st0" d="M851.7,380.1c-8.2,0-15.6,2.7-22.7,8.6v-6h-27.5v108H829v-29.4c5.7,4.2,11.7,6,19,6c23.7,0,40.4-19,40.4-45.9 C888.3,397.1,873.4,380.1,851.7,380.1 M841.8,446.4c-5.1,0-9.1-1.5-12.8-4.7v-32.6c6.5-4.7,9.9-6.2,15.1-6.2 c9.7,0,16.6,8.6,16.6,20.7C860.8,437.1,853,446.4,841.8,446.4"></path> <path class="st0" d="M425.1,380.3c-9.6,0-19.5,4.2-30.9,13c-3.4-8.4-10.9-13-21.7-13c-8.9,0-16.3,3.4-26.7,11.8v-9.4H318v82.5h27.7 v-53.6c6.4-5.2,10.8-7.4,15.5-7.4c6.4,0,8.7,3.7,8.7,13.6v47.4h27.6v-54.1c7.9-5.2,11.6-6.7,15.8-6.7c6.4,0,8.7,3.5,8.7,13.4v47.4 h27.9v-52.6C450.1,390,442.6,380.3,425.1,380.3"></path> <path class="st0" d="M587.1,414.1l-4.7-1.2c-5.9-1.5-7.9-3-7.9-6.5c0-4,4.2-6.6,10.9-6.6c6.2,0,7.9,0.3,19,3.5l5.4-17.8 c-10.3-3.7-19.8-5.4-30.3-5.4c-20.2,0-33.5,10.8-33.5,27.4c0,0.5,0.1,1,0.1,1.5c0,0.5-0.1,1-0.1,1.5c0,12.8,7.9,20.5,25.4,24.9 l4.7,1.2c5.9,1.5,7.9,3,7.9,6.5c0,4-4.2,6.6-10.9,6.6c-6.2,0-7.9-0.3-19-3.5l-5.4,17.8c10.3,3.7,19.8,5.4,30.3,5.4 c20.2,0,33.5-10.8,33.5-27.4c0-0.2,0-1.1,0-1.6c0-0.6,0-1.3,0-1.5C612.4,426.2,604.5,418.5,587.1,414.1"></path> <path class="st0" d="M695.1,389.4c-4.4-5.2-10.8-8.2-18.2-8.2c-9.7,0-21.8,3.7-31.2,11.8v-51.5H618v97.3v5.3v23.7h27.5v-27.3 c0,0,0,0,0,0v-27.8c7.9-6.2,14.8-7.9,19.7-7.9c5.9,0,7.8,3,7.8,13.9v46.6h0v2.5h27.5v-29h0v-25.5 C700.8,399.6,699.6,394.9,695.1,389.4"></path> <path class="st0" d="M794.1,409.5c-4.3-15.9-16-26.1-33-29c-0.1,0,0,0-0.2,0c-3.4-0.6-6.8-0.7-10.6-0.7c-26.5,0-44,17.2-44,43.2 c0,0.1,0,0.2,0,0.3c0,0.1,0,0.2,0,0.3c0,5.2,0.6,10,1.9,14.3c4.3,15.9,16,26.1,33,29c0-0.1,0-0.1,0.1-0.2c3.4,0.6,7,0.9,10.7,0.9 c26.5,0,44-17.2,44-43.2c0-0.1,0-0.2,0-0.3c0-0.1,0-0.2,0-0.3C796,418.7,795.4,413.9,794.1,409.5 M751.5,446 c-2.8,0-5.2-0.5-7.4-1.4c-4.3-2-7.3-5.9-8.9-11.4c-0.7-2.7-1.1-5.8-1.1-9.2c0-1.9,0-3.9,0.1-5.8c1.3-10.9,7-16.7,16.6-16.7 c2.8,0,5.2,0.5,7.4,1.4c4.3,2,7.3,5.9,8.9,11.4c0.7,2.7,1.1,5.8,1.1,9.2c0,1.6,0,3.2,0,4.7C767.2,439.9,761.4,446,751.5,446"></path> <path class="st0" d="M533.5,448.6c-3.2,0-3.9-1.7-3.9-8.4v-31.8c0-11.8-1-16-4.7-20.5c-4.5-5.2-12.1-8.1-21.7-8.1 c-13.8,0-24.1,3.4-41.4,13.8l9.7,15.8c11.3-6.2,17.5-8.6,23-8.6c5.9,0,9.2,3.5,9.2,9.7c0,0.3-0.2,1.7-0.2,2.7 c-13.8,1.5-21.9,3-28.4,5.4c-12.3,4.5-18.5,12.6-18.5,24.4c0,15,9.9,24.7,24.9,24.7c8.6,0,14.6-2.3,23.9-9.2 c2.2,6.7,6.1,9.2,14.1,9.2c6.6,0,12.1-1.3,21.2-5.4l-3.4-14.8C535.3,448.4,534.6,448.6,533.5,448.6 M504,444.5 c-4.7,3.5-7.6,4.7-11.3,4.7c-5.9,0-9.9-3.7-9.9-9.2c0-7.3,5.6-10.6,21.2-12.5V444.5z"></path> <path class="st1" d="M455.4,349.2c-3.6,0-7.1-1.7-9.3-4.5c-2-2.6-2.8-5.8-2.4-9c-49.9-7.6-87.9-51.5-87.9-104.3 c0-48.9,32.5-90.2,77-102.1c-1-3.2-0.6-6.8,1.2-9.7c2-3.2,5.4-5.3,9.2-5.6c30-2.5,57.8-4.9,87.9-7.4c4.9-0.4,9.5,2.2,11.6,6.6 c6.7,13.6,13.9,30.6,18.3,50.3c15.3-1.5,34-5.2,46.4-10c5.9-2.3,12.5,0.5,15,6.3c6.6,15.2,9,34,9.1,51.9c0,14.5-1.6,28.2-5.1,39.2 c-1.3,4-4.5,7-8.5,7.9c-14.5,3.5-30.9,7.3-47.7,9.3c-1.3,21.3-6.8,45.2-12.2,65c-1.2,4.4-4.9,7.8-9.5,8.6 c-21.9,3.6-67.9,7.6-92,7.6H455.4z"></path> <path class="st2" d="M405,270.5L405,270.5c0.1,2.5,1,4.1,3.8,5.9c0.2,0.2,0.5,0.3,0.7,0.5c0.6,0.4,1.3,0.7,2.1,1 c2.5,1,5.6,1.9,9.2,2.6l-0.1-5.6l-0.9-42.1l-0.1-3.7l-0.4-17c-4.7-0.2-9.5-0.8-13.8-2.3c-0.4-0.1-0.8-0.3-1.2-0.5 c-0.4-0.2-0.7-0.3-1.1-0.5c-0.2-0.1-0.3-0.2-0.5-0.2c-0.1,0-0.1-0.1-0.2-0.1l0,0.1l2.2,59.2l0.1,2.1v0.1L405,270.5z"></path> <path class="st0" d="M615,162.7c-0.8-1.8-2.9-2.7-4.7-2c-15.6,5.9-38.8,10.1-55.9,11c-3.9-21.6-11.8-40.6-19-55.4 c-0.7-1.4-2.1-2.2-3.6-2.1c-30.1,2.5-57.8,5-87.9,7.4c-1.2,0.1-2.2,0.8-2.9,1.8c-0.6,1-0.7,2.2-0.3,3.4c1.2,2.8,2.3,5.5,3.5,8 c-45.5,7.3-80.2,47.6-80.3,96.2c0.1,51.9,39.7,94.4,89.8,97.2c-0.6,2.7-1.3,5.4-1.9,8c-0.3,1.1,0,2.3,0.7,3.2 c0.7,0.9,1.8,1.4,2.9,1.4h0.1h1c23.3,0,69.6-4,90.6-7.5c1.4-0.2,2.6-1.3,3-2.7c5.9-21.7,11.9-48.6,12.2-70.2 c18.6-1.5,37.2-5.8,53.7-9.8c1.3-0.3,2.3-1.2,2.7-2.5c3.1-9.8,4.7-23,4.7-36.8C623.3,194.3,620.9,176.2,615,162.7 M428.9,178.7 c-1.2,0.2-2.4,0.4-3.6,0.7c-8.2,1.7-15.3,3.5-20.6,5.9c-5.2,2.4-9.8,5.9-9.9,11.7c0,0,0,0.1,0,0.1c0,0,0,0.1,0,0.1v0.1l0.5,13.3 c-6.1,2-8.8,4.2-9,7.6v0l3.9,61.5c0.5,6.9,9.7,13,23.2,14.6l-0.9-8.2c3.5,1.1,7.3,1.9,11.6,2.5l0.5,0c0.9,0,1.8-0.3,2.5-0.9 c0.8-0.7,1.3-1.8,1.3-2.9l-0.3-11.6c7.2-1.6,15.2-2.9,23.1-2.8c1.6,15.8-0.3,33.8-2.9,49.9c-43.3-5.5-76.9-43.2-76.9-89.2 c0-45.7,33.2-83.3,76.1-89.1c2.6,5.7,5,11.2,7,17.1c-11.9,0.9-23.9,1.7-36.3,2.6C421.8,167.9,425.6,173.2,428.9,178.7 M404.9,267.8 l-2.2-59.2l0-0.1c0.1,0,0.1,0.1,0.2,0.1c0.2,0.1,0.3,0.1,0.5,0.2c0.4,0.2,0.7,0.3,1.1,0.5c0.4,0.2,0.8,0.3,1.2,0.4 c4.3,1.5,9.2,2.1,13.8,2.3l0.4,17l0.1,3.7v0l0.9,42.1l0.1,5.6c-3.6-0.7-6.8-1.6-9.2-2.6c-0.8-0.3-1.5-0.7-2.1-1 c-0.3-0.2-0.5-0.3-0.8-0.5c-2.8-1.8-3.8-3.4-3.8-5.9v0l0-0.4v-0.1L404.9,267.8z M612.2,244c-16.9,4-35.6,8.2-53.8,9.3 c-2,0.1-3.5,1.8-3.5,3.8c0,0.6,0,1.3,0,1.9c0,19.8-5.6,46-11.3,67.5c-20.2,3.1-60.7,6.6-83.4,7c0.4-1.6,0.8-3.3,1.2-5 c0.3-1.2,0.6-2.5,0.8-3.7c0.3-1.2,0.5-2.5,0.8-3.7c4.2-19.7,7.7-41.9,7.8-60.5c0-2-1.6-3.7-3.6-3.7c-0.7,0-1.4,0-2.1,0 c-13.7,0-27.7,3-37.3,5.3l-1.2-53.6c0-1.7-1.2-3-2.7-3.5c-0.3-0.1-0.6-0.2-1-0.2c-5.2,0-11-0.5-15-2c-4-1.6-5.6-3.1-5.9-5.8 c0-0.1,0-0.1,0-0.2c-0.1-0.8,1-2.7,5.6-4.8c4.4-2,11.1-3.8,19-5.4c2-0.4,4-0.8,6.1-1.1c10.1-1.6,20.7-2.6,29.7-3.2 c1-0.1,1.9-0.6,2.6-1.3c0.6-0.8,0.9-1.8,0.8-2.8c-0.8-7.5-2.2-13.9-4.1-19.7c-1.9-6.2-4.3-11.7-6.8-17.2c-0.5-1.2-1.1-2.4-1.7-3.6 c-0.5-1.2-1.1-2.4-1.6-3.6c-0.8-1.7-1.6-3.5-2.4-5.3c27.3-2.3,52.8-4.5,80.3-6.8c7.1,14.8,14.5,33.4,17.8,54.3 c0.3,1.9,1.9,3.2,3.8,3.1c17.1-0.6,40.5-4.4,58.1-10.4c4.4,11.7,6.5,27.5,6.5,42.5C616,223.7,614.6,235.4,612.2,244"></path> <path class="st3" d="M428.1,273.2l0.3,11.6c0,1.1-0.5,2.1-1.3,2.9c-0.7,0.6-1.6,0.9-2.5,0.9l-0.5,0c-4.2-0.6-8.1-1.4-11.6-2.5 l0.9,8.2c-13.5-1.6-22.7-7.7-23.2-14.6l-3.9-61.5v0c0.1-3.3,2.9-5.6,9-7.6l-0.5-13.3v-0.1c0,0,0-0.1,0-0.1c0,0,0-0.1,0-0.1 c0.1-5.9,4.7-9.4,9.9-11.7c5.4-2.4,12.5-4.2,20.6-5.9c1.2-0.2,2.4-0.5,3.6-0.7c-3.4-5.5-7.1-10.8-10.9-17.1 c12.4-0.9,24.4-1.7,36.3-2.6c-2-5.9-4.4-11.4-7-17.1c-42.9,5.9-76.1,43.4-76.1,89.1c0,46,33.7,83.8,76.9,89.2 c2.7-16.1,4.5-34.1,2.9-49.9C443.3,270.3,435.3,271.6,428.1,273.2"></path> <path class="st4" d="M558.3,253.3c18.2-1.1,36.9-5.3,53.8-9.3c2.4-8.6,3.8-20.3,3.8-32.6c0-15-2.1-30.8-6.5-42.5 c-17.6,6-41,9.9-58.1,10.4c-1.8,0-3.5-1.3-3.8-3.1c-3.3-20.8-10.7-39.4-17.8-54.3c-27.4,2.3-52.9,4.5-80.3,6.8 c0.8,1.8,1.6,3.6,2.4,5.3c0.5,1.2,1.1,2.4,1.6,3.6c0.6,1.2,1.1,2.4,1.7,3.6c2.5,5.5,4.8,11.1,6.8,17.2c1.8,5.9,3.3,12.2,4.1,19.7 c0.1,1-0.2,2-0.8,2.8c-0.6,0.8-1.6,1.2-2.6,1.3c-9,0.7-19.7,1.6-29.7,3.2c-2.1,0.3-4.1,0.7-6.1,1.1c-7.9,1.6-14.7,3.4-19,5.4 c-4.5,2.1-5.7,4-5.6,4.8c0,0.1,0,0.1,0,0.2c0.2,2.7,1.8,4.2,5.9,5.8c4,1.5,9.8,2,15,2c0.3,0,0.7,0.1,1,0.2c1.5,0.4,2.7,1.8,2.7,3.5 l1.2,53.6c9.5-2.3,23.6-5.3,37.3-5.3c0.7,0,1.4,0,2.1,0c2,0,3.6,1.7,3.6,3.7c-0.1,18.5-3.6,40.7-7.8,60.5c-0.3,1.3-0.5,2.5-0.8,3.7 c-0.3,1.3-0.6,2.5-0.8,3.7c-0.4,1.7-0.8,3.4-1.2,5c22.7-0.4,63.2-3.8,83.4-7c5.8-21.5,11.4-47.7,11.3-67.5c0-0.6,0-1.3,0-1.9 C554.8,255.1,556.3,253.4,558.3,253.3"></path> <path class="st1" d="M509.9,200.3l0-0.8l0-0.7l-0.2-1.5l-0.1-0.5l-0.2-1l-0.4-1.4l-0.4-1.2l0-0.1l-0.4-0.9l-0.1-0.3l-0.6-1.2 l-0.7-1.1l-0.8-1l-0.8-0.8l-0.5-0.5l-0.3-0.2l-0.8-0.6l-0.8-0.5l-0.8-0.4l-0.4-0.1l-0.4-0.1l-0.8-0.1h-0.8l-0.8,0.1l-0.8,0.3 l-0.4,0.2l-0.3,0.1l-0.7,0.5l-0.1,0.1l-0.6,0.5l-0.7,0.7l-0.6,0.8l-0.6,1l-0.5,1l-0.2,0.5l-0.3,0.7l-0.4,1.2l-0.2,0.8l-0.1,0.5 l0,0.3l-0.1,1l-0.1,1.4l0,0l0,0.8l0,0.8l0,0.1l0.1,1.4l0.2,1.5l0,0.1l0.1,0.5c0.7-4.9,4.3-8.7,8.7-8.7c4.5,0,8.2,4,8.7,9.1l0.1-0.9 L509.9,200.3z"></path> <path class="st0" d="M502.3,216.8c6.3-0.6,11.2-8.7,10.3-18.3c-0.9-9.6-7.3-17.1-13.5-16.5c-6.3,0.6-10.7,8.9-9.8,18.4 C490.2,210,496,217.4,502.3,216.8 M492,197.2l0.1-1.4l0.2-1.4l0.3-1.3l0.4-1.2l0.4-1.2l0.5-1l0.6-1l0.6-0.8l0.7-0.7l0.7-0.6 l0.7-0.5l0.7-0.4l0.8-0.3l0.8-0.1h0.8l0.8,0.1l0.8,0.2l0.8,0.4l0.8,0.5l0.8,0.6l0.8,0.7l0.8,0.8l0.8,1l0.7,1.1l0.6,1.2l0.5,1.2 l0.5,1.3l0.4,1.4l0.3,1.4l0.2,1.5l0.1,1.5l0,1.5l-0.1,0.9c-0.5-5.1-4.3-9.1-8.7-9.1c-4.4,0-8,3.8-8.7,8.7l-0.1-0.6l-0.2-1.5 l-0.1-1.5L492,197.2z"></path> <path class="st1" d="M522.6,188.5l-0.3,0.7l-0.2,0.5l-0.5,1.3l0,0.1l-0.4,1.3l-0.2,1.1l-0.1,0.4l-0.2,1.5l-0.1,1.5l0,1.5l0.1,0.9 c0.5-5.1,4.3-9.1,8.8-9.1c4.4,0,8,3.8,8.7,8.7l0.1-0.6l0.1-1.1l0.1-0.4l0.1-1.5l0-1.5l-0.1-0.7l0-0.7l-0.2-1.4L538,190l-0.1-0.3 l-0.4-1.2l-0.2-0.4l-0.3-0.7l-0.5-1.1l-0.6-0.9l-0.5-0.6l-0.2-0.2l-0.6-0.7l-0.7-0.6l-0.7-0.5l-0.7-0.4l-0.3-0.1l-0.5-0.2l-0.5-0.1 l-0.2,0h-0.8l-0.8,0.1l-0.1,0l-0.7,0.2l-0.8,0.4l-0.8,0.5l-0.8,0.6l-0.8,0.7l-0.3,0.3l-0.5,0.6l-0.5,0.7l-0.2,0.3l-0.4,0.6 l-0.3,0.5L522.6,188.5z"></path> <path class="st0" d="M528.2,213.5c6.3,0.5,12.1-6.8,13-16.4c0.9-9.6-3.6-17.9-9.8-18.4c-6.3-0.6-12.6,6.9-13.5,16.5 C517,204.8,522,212.9,528.2,213.5 M520.6,198.4l0-1.5l0.1-1.5l0.2-1.5l0.3-1.5l0.4-1.4l0.5-1.3l0.6-1.2l0.6-1.2l0.7-1.1l0.7-1 l0.8-0.9l0.8-0.7l0.8-0.6l0.8-0.5l0.8-0.4l0.8-0.2l0.8-0.1h0.8l0.8,0.1l0.8,0.3l0.7,0.4l0.7,0.5l0.7,0.6l0.6,0.7l0.6,0.9l0.6,0.9 l0.5,1.1l0.4,1.2l0.4,1.2l0.3,1.3l0.2,1.4l0.1,1.4l0,1.5l-0.1,1.5l-0.2,1.5l-0.1,0.6c-0.7-4.9-4.3-8.7-8.7-8.7 c-4.5,0-8.2,4-8.8,9.1L520.6,198.4z"></path> <path class="st0" d="M542.6,218.1c2.5-0.1,5.6-0.7,9.5,1.4c-8.5,22.9-30.9,28.6-49.7,22.8c-14.8-4.6-27.4-16.4-29.1-32.5 c3.4-0.6,6.1,0.3,8.5,1c-4.4-12.1-18-5.7-21.1,9.6c2.1-2.9,4.4-5.9,7.3-8.1l1.9-1.3c0.4,19.9,16.9,34.9,35.5,38.9 c19,4.1,40.3-3.4,48.9-29l1.7,1.5c1.6,1.4,3.5,3.9,5.2,8.1C561.7,218.7,550.7,206.2,542.6,218.1"></path> <path class="st0" d="M507,221.5c6.4-5.9,18.2-4.9,21.7,0.6C525.5,211.4,510.3,213,507,221.5"></path> </g> </svg> 